<?xml version="1.0" standalone="no"?>
<!DOCTYPE svg PUBLIC "-//W3C//DTD SVG 20010904//EN"
 "http://www.w3.org/TR/2001/REC-SVG-20010904/DTD/svg10.dtd">
<svg version="1.0" xmlns="http://www.w3.org/2000/svg"
 width="96.000000pt" height="96.000000pt" viewBox="0 0 96.000000 96.000000"
 preserveAspectRatio="xMidYMid meet">
<metadata>
Created by potrace 1.14, written by Peter Selinger 2001-2017
</metadata>
<g transform="translate(0.000000,96.000000) scale(0.100000,-0.100000)"
fill="#000000" stroke="none">
<path d="M592 861 c-13 -8 -252 -711 -252 -742 0 -22 12 -30 28 -20 13 8 252
712 252 742 0 22 -12 30 -28 20z"/>
<path d="M183 668 c-26 -28 -59 -63 -73 -78 -14 -15 -43 -46 -64 -68 l-39 -41
104 -114 c57 -63 110 -118 118 -121 8 -4 20 -1 28 6 14 15 17 11 -111 152
l-68 76 32 37 c18 21 62 69 97 107 50 54 61 71 52 82 -17 21 -24 18 -76 -38z"/>
<path d="M702 707 c-12 -14 -4 -25 86 -122 26 -28 58 -63 71 -78 l24 -26 -59
-67 c-32 -36 -76 -84 -96 -107 -27 -31 -34 -45 -26 -54 6 -7 14 -13 19 -13 8
0 9 1 93 91 33 35 78 83 99 106 l40 42 -104 113 c-130 141 -127 139 -147 115z"/>
</g>
</svg>
